# xmcd CD database file
#
# Track frame offsets:
#	150
#	19987
#	43094
#	61401
#	86909
#	107465
#	121342
#	157650
#	180531
#	200599
#	224456
#	242219
#
# Disc length: 3596 seconds
#
# Revision: 0
# Processed by: cddbd v1.5.2PL0 Copyright (c) Steve Scherf et al.
# Submitted via: CDex 1.51
#
DISCID=a40e0a0c
DTITLE=Broadway - broadway
DYEAR=2011
DGENRE=Jazz
TTITLE0=I want to be happy
TTITLE1=Broadway
TTITLE2=It's only a paper moon
TTITLE3=More than you know
TTITLE4=love you madly
TTITLE5=barney mod
TTITLE6=In a sentimental mood
TTITLE7=D.G. Blues
TTITLE8=Lennie's place
TTITLE9=Cherokee
TTITLE10=Fascinating Rhythm
TTITLE11=I'm in the mood for love
EXTD=YEAR: 2011
EXTT0=
EXTT1=
EXTT2=
EXTT3=
EXTT4=
EXTT5=
EXTT6=
EXTT7=
EXTT8=
EXTT9=
EXTT10=
EXTT11=
PLAYORDER=
